<svg width="34" height="48" viewBox="0 0 34 48" fill="none" xmlns="http://www.w3.org/2000/svg">
<g clip-path="url(#clip0_2636_15429)">
<path d="M31.0588 19.7647V14.1176C31.0588 10.2212 29.4776 6.69176 26.9224 4.13647C24.3671 1.58118 20.8376 0 16.9412 0C9.14824 0 2.82353 6.32471 2.82353 14.1176V19.7647H0V48H33.8824V19.7647H31.0588ZM8.47059 14.1176C8.47059 9.44471 12.2682 5.64706 16.9412 5.64706C19.2847 5.64706 21.4024 6.59294 22.9271 8.13177C24.4659 9.65647 25.4118 11.7741 25.4118 14.1176V19.7647H8.47059V14.1176ZM28.2212 42.3529H5.64706V25.4118H28.2353V42.3388L28.2212 42.3529Z" fill="#15BBF0"/>
<path d="M19.7647 31.0588H14.1176V36.7059H19.7647V31.0588Z" fill="#15BBF0"/>
</g>
<defs>
<clipPath id="clip0_2636_15429">
<rect width="33.8824" height="48" fill="white"/>
</clipPath>
</defs>
</svg>
